<svg xmlns="http://www.w3.org/2000/svg" id="a" width="2049.46" height="639.94" viewBox="0 0 2049.46 639.94"><path d="M918.82,147.81c4.44-14.07,15.66-22.98,29.68-22.98,14.73,0,26.42,8.91,30.16,22.98h-59.84Zm90.46,25.32c4.44-47.84-25.01-75.5-60.54-75.5s-61.71,28.61-61.71,63.54,27.82,63.08,61.71,63.08c29.92,0,51.2-16.65,58.21-41.27h-32.96c-5.14,9.61-15.19,14.07-25.48,14.07-14.49,0-26.18-9.15-30.15-23.92h90.93Zm228.78-25.32c4.44-14.07,15.66-22.98,29.68-22.98,14.73,0,26.42,8.91,30.16,22.98h-59.84Zm90.46,25.32c4.44-47.84-25.01-75.5-60.54-75.5s-61.72,28.61-61.72,63.54,27.82,63.08,61.72,63.08c29.92,0,51.19-16.65,58.2-41.27h-32.96c-5.14,9.61-15.19,14.07-25.48,14.07-14.49,0-26.18-9.15-30.15-23.92h90.93Zm-201.1-22.28c0-31.89-18.7-53.23-46.99-53.23-12.86,0-23.38,5.63-31.09,14.77v-11.73h-29.45v120.77h30.85v-70.58c0-13.6,9.59-23.92,23.38-23.92,20.34,0,22.44,16.89,22.44,23.92v70.58h30.85v-70.58Zm75.06,42.21c-15.43,.93-23.14-5.39-23.14-22.28v-42.68h21.74v-27.44h-21.74V58.45h-30.85v42.23h-14.5v27.44h14.5v42.44c0,33.06,18.7,54.4,54,50.65v-28.14Zm205.2-94.73c-14.5-2.35-28.99,2.11-38.81,14.3v-11.96h-29.45v120.77h30.85v-59.33c0-9.61,1.17-19.46,7.72-26.26,7.02-7.5,17.29-8.91,29.69-7.5v-30.01Zm-527.37,71.52h-33.2c-7.25,14.77-21.98,26.26-40.44,26.26-26.65,0-47.69-25.8-47.69-56.75s21.04-56.51,47.69-56.51c18.7,0,33.2,11.02,40.44,25.79h33.43c-10.05-33.29-37.17-54.17-73.87-54.17-44.18,0-78.54,37.29-78.54,84.89s34.36,84.89,78.54,84.89c36,0,63.35-21.34,73.64-54.4m702.39,26.03c-16.36,0-29.69-14.07-29.69-34.47s13.33-35.41,29.69-35.41,29.69,14.54,29.69,35.41-13.33,34.47-29.69,34.47m0-98.25c-33.43,0-60.54,27.44-60.54,63.54s27.11,63.08,60.54,63.08,60.78-26.96,60.78-63.08-27.35-63.54-60.78-63.54m140.57,.7c-14.5-2.35-28.99,2.11-38.81,14.3v-11.96h-29.45v120.77h30.85v-59.33c0-9.61,1.17-19.46,7.72-26.26,7.01-7.5,17.3-8.91,29.69-7.5v-30.01Zm-227.26,2.81c0-16.65,8.19-22.74,22.91-21.57v-29.08c-34.37-3.99-53.3,19.23-53.77,50.65h-14.5v27.44h14.5v92.86h30.85v-92.86h21.74v-27.44h-21.74ZM896.95,418.11h-46.05l-33.89,121.93-33.9-121.93h-45.82v162.74h30.39v-119.35l32.96,119.35h32.96l32.96-119.35v119.35h30.39v-162.74Zm1152.51,134.36c-15.43,.94-23.14-5.39-23.14-22.28v-42.68h21.74v-27.44h-21.74v-42.23h-30.85v42.23h-14.5v27.44h14.5v42.45c0,33.06,18.7,54.4,54,50.65v-28.14Zm-75.47-42.2c0-31.89-18.7-53.23-46.99-53.23-12.86,0-23.38,5.63-31.09,14.77v-11.73h-29.45v120.77h30.86v-70.58c0-13.6,9.58-23.92,23.37-23.92,20.34,0,22.44,16.89,22.44,23.92v70.58h30.85v-70.58Zm-249.04,0c0-31.66-18.7-53.23-50.96-53.23-15.43,0-28.05,6.57-36.7,17.12-8.42-10.79-21.04-17.12-36-17.12-13.09,0-23.61,5.63-31.09,14.77v-11.73h-29.69v120.77h31.09v-70.58c0-13.6,9.59-23.92,23.15-23.92,20.33,0,22.44,16.89,22.44,23.92v70.58h31.09v-70.58c0-13.6,9.58-23.92,23.38-23.92,20.1,0,22.44,16.89,22.44,23.92v70.58h30.86v-70.58Zm-581.06,0c0-31.89-18.7-53.23-46.99-53.23-12.86,0-23.38,5.63-31.09,14.77v-11.73h-29.46v120.77h30.86v-70.58c0-13.6,9.58-23.92,23.38-23.92,20.34,0,22.44,16.89,22.44,23.92v70.58h30.86v-70.58Zm710.63,22.28c4.44-47.84-25.01-75.51-60.54-75.51s-61.71,28.61-61.71,63.55,27.82,63.08,61.71,63.08c29.92,0,51.2-16.65,58.21-41.27h-32.96c-5.14,9.62-15.19,14.07-25.48,14.07-14.49,0-26.18-9.15-30.15-23.91h90.93Zm-90.47-25.33c4.44-14.06,15.66-22.98,29.69-22.98,14.73,0,26.42,8.91,30.15,22.98h-59.84Zm-231.65,25.33c4.44-47.84-25.01-75.51-60.54-75.51s-61.71,28.61-61.71,63.55,27.82,63.08,61.71,63.08c29.92,0,51.19-16.65,58.21-41.27h-32.96c-5.14,9.62-15.19,14.07-25.48,14.07-14.49,0-26.18-9.15-30.15-23.91h90.93Zm-90.47-25.33c4.44-14.06,15.66-22.98,29.69-22.98,14.73,0,26.42,8.91,30.15,22.98h-59.84Zm-44.14-47.13h-29.46v12.9c-9.58-9.84-22.21-15.48-36.93-15.48-31.32,0-57.27,27.2-57.27,63.08s25.95,62.84,57.27,62.84c14.03,0,26.18-5.16,35.53-14.07v5.86c0,21.57-9.82,35.88-31.56,35.88-8.42,0-20.58-3.75-24.55-13.36h-33.89c4.67,25.56,29.68,42.2,58.44,42.2,38.57,0,62.41-25.09,62.41-65.19v-114.67Zm-30.86,60.74c0,18.76-13.8,34-30.86,34s-30.85-14.78-30.85-34,13.79-34.71,30.85-34.71,30.86,15.48,30.86,34.71m-124.69,60.03h28.28c-1.64-4.69-3.5-13.84-3.5-19.7v-62.84c0-9.62-3.74-41.27-52.6-41.27-31.56,0-53.53,17.12-56.57,40.1h30.85c2.8-10.32,15.43-15.24,26.42-15.24,13.79,0,21.97,5.16,21.97,11.49,0,9.85-14.26,12.19-34.36,14.07-26.65,2.34-49.32,9.38-49.32,36.58s23.37,39.16,48.86,39.16c16.83,0,28.98-5.16,36.93-13.6,.71,4.46,1.64,8.21,3.04,11.26m-3.98-46.9c0,15.48-14.96,21.81-33.42,21.81-12.39,0-20.34-4.69-20.34-11.49,0-8.91,9.35-12.19,24.54-13.83,12.62-1.41,22.68-3.51,29.22-7.74v11.26Zm-240.58,46.9h28.29c-1.64-4.69-3.51-13.84-3.51-19.7v-62.84c0-9.62-3.74-41.27-52.59-41.27-31.56,0-53.54,17.12-56.57,40.1h30.86c2.8-10.32,15.43-15.24,26.41-15.24,13.8,0,21.98,5.16,21.98,11.49,0,9.85-14.26,12.19-34.36,14.07-26.65,2.34-49.32,9.38-49.32,36.58s23.37,39.16,48.85,39.16c16.83,0,28.98-5.16,36.93-13.6,.7,4.46,1.64,8.21,3.04,11.26m-3.97-46.9c0,15.48-14.96,21.81-33.43,21.81-12.39,0-20.34-4.69-20.34-11.49,0-8.91,9.35-12.19,24.54-13.83,12.62-1.41,22.68-3.51,29.22-7.74v11.26Zm-122.25-296.18h-31.09v115.84l-65.92-115.84h-37.17v162.74h30.86v-115.84l66.16,115.84h37.16V237.77Zm777.91,134.36c-15.42,.94-23.14-5.39-23.14-22.28v-42.68h21.74v-27.44h-21.74v-42.23h-30.85v42.23h-14.5v27.44h14.5v42.44c0,33.06,18.7,54.4,53.99,50.65v-28.14Zm-148.15-91.92c0-16.65,8.18-22.75,22.91-21.57v-29.08c-34.37-3.99-53.3,19.23-53.77,50.65h-14.5v27.43h14.5v92.86h30.85v-92.86h21.74v-27.43h-21.74Zm-166.88-2.82c-14.5-2.34-28.99,2.11-38.81,14.3v-11.96h-29.46v120.76h30.86v-59.33c0-9.61,1.17-19.46,7.72-26.26,7.01-7.5,17.29-8.91,29.69-7.5v-30.01Zm233.99-39.63h-30.85v28.84h30.85v-28.84Zm0,41.97h-30.85v120.76h30.85v-120.76Zm-449.28,53.38c0-31.89-18.7-53.23-46.99-53.23-12.86,0-23.37,5.63-31.09,14.77v-11.73h-29.46v120.77h30.85v-70.58c0-13.6,9.59-23.92,23.38-23.92,20.34,0,22.44,16.89,22.44,23.92v70.58h30.85v-70.58Zm274.87-56.43c-33.43,0-60.54,27.44-60.54,63.55s27.11,63.08,60.54,63.08,60.78-26.97,60.78-63.08-27.35-63.55-60.78-63.55m0,98.25c-16.36,0-29.69-14.07-29.69-34.47s13.33-35.41,29.69-35.41,29.69,14.54,29.69,35.41-13.33,34.47-29.69,34.47m-138.61-35.18c0-35.64-25.71-62.84-57.27-62.84-14.49,0-27.35,5.86-36.7,15.48v-12.66h-29.69v174.46h31.09v-65.42c9.12,8.91,21.51,14.31,35.3,14.31,31.56,0,57.27-27.44,57.27-63.32m-30.85,0c0,19.7-13.8,34.47-30.86,34.47s-30.86-15.48-30.86-34.47,13.8-34,30.86-34,30.86,14.54,30.86,34m-283.85-63.08c-33.43,0-60.55,27.44-60.55,63.55s27.12,63.08,60.55,63.08,60.78-26.97,60.78-63.08-27.35-63.55-60.78-63.55m0,98.25c-16.37,0-29.69-14.07-29.69-34.47s13.32-35.41,29.69-35.41,29.69,14.54,29.69,35.41-13.33,34.47-29.69,34.47" style="fill:#313842; fill-rule:evenodd;"></path><g><path d="M214.48,458.02c49.55,26.5,95.02,34.67,140.2,30.37,21.95-2.09,40.76-12.07,65.83-14.84-64.53,33.52-146.42,24.41-206.03-15.52m214.35,16.56c-64.79,53.33-189.75,30.36-237.01-17.85-10.21-10.42-22.82-26.74-23.67-38.44,2.83,1.84,15.91,21.83,33.81,31.09,65.37,39.57,137.5,63.88,226.86,25.19m77.45-146.56l-3.06-18.28c-47.84-217.28-402.69-183.71-367.57,53.79,33.23,224.65,399.52,201.14,370.63-35.51m20.08,27.37c-35.78,51.41-20.66,103.63-93.63,144.24-155.92,86.79-373.36-76.14-293.68-247.92,87.64-188.95,393.81-100.08,382.05,102.22l5.25,1.45Zm-54.41,217.36C138.21,730.16-168.04,304.91,126.05,115.63c52.81-33.99,118.42-50.89,183.56-50.39,52.97,.4,60.84,4.09,13.5,4.15-15.57,.02-31.15,1.27-46.56,3.83l-18.8,7.04c-40.62-.12-59.58,14.97-93.06,36.38C38.48,197.34-10.37,342.71,86.28,468.66c-17.84-22.13-32.48-47.11-41.24-74.26l-6.74,1.38c19.98,94.63,87.65,155.25,174.57,189.82l2.6-6.04c-37.09-16.88-59.12-51.07-89.59-77.05l-16.9-19.78c-39.55-57.01-55.86-100.88-49.25-172.54,5.64-61.14,43.21-143.03,95.66-177.41,16.47-10.8,35.83-14.05,53.88-21.21,51.61-20.48,92.98-29.21,148.69-20.68l.78-3.87,33.43,7.49-.66,2.65,28.83,11.05,2.25-3.66c93.15,69.35,144.29,74.49,164.9,201.87,4.21,26.04,8.31,49.41,4.6,75.97l6.88,1.25c12.54-69.28-.39-144.22-41.23-202.2,28.33,35.02,51.99,76.64,62.68,120.7-5.59,14.24-5.7,27.21-3.48,42.16l5.41,.85c-11.42,100.71-59.94,173.69-143.38,228.31-1.43,.94-7.25,2.18-6.05,.56,1.2-1.61-.99-1.29-.99-1.29M99.97,364.59l5.63,20.35c5.12,45.55,6.48,55.98,34.99,79.61,3.8,3.15,20.52,23.21,20.52,23.21l10.99,18.71c165.23,146.7,468.72-47.9,355.77-268l1.11,1.74,6.07-3c-8.04-15.09-19.13-28.3-31.31-40.19l-2.73,2.4c-50.05-55.52-164.59-94.29-237.06-72.25l-3.19,7.4c-23.72,21.65-61.92,29.26-88.52,52.97-29.88,26.64-63.12,52.36-75.66,89.43-8.55,25.27-3.6,59.93,3.38,87.62M318.74,112.94l5.51,4.06c57.63,.35,101.67,12.21,150.31,44.09l4.09-1.41C334.01,9.5,54.23,129.39,66.49,345.65l6.9,.68c4.7-17.57,2.94-35.52,5.01-53.39,6.43-55.46,84.78-120.81,130.33-149.38,19.68-12.34,78.84-37.86,100.11-33.6l9.9,2.98Zm72.44,431.02l2.2,6.37,11.2-3.1-1.87-6.44-11.52,3.18Zm-240.29-58.16l-5.16,4.22c32.02,41.85,83.74,85,139.08,84.77l-.76,5.39c144.75,33.96,293.47-62.81,293.47-218.21,0-14.75-.64-29.21-7.19-42.37-.94-1.9-3.62,.92-3.54,4.13,.16,6.38,.91,12.69,1.14,19.17,4.33,119.59-120.71,225.54-233.91,232,32.95-3.98,65.45-12.9,95.13-27.96l-3.14-6.02c-89.74,34.74-204.78,9.73-275.11-55.12M547.12,226.1c-12.73-23.3-27.93-44.01-49.87-59.35,16.35,21.16,32.55,39.13,49.87,59.35M73.65,349.48l-6.86,.76c2.33,31.03,10.35,61.61,23.56,89.76l6.42-2.3c-11.01-28.41-16.04-58.7-23.13-88.22" style="fill:#fbd547;"></path><path d="M491.34,377.07c-5.27,38.44-23.02,64.93-54.07,91.65-38.24,32.91-92.26,38.56-139.33,24.3-1.15-.35-7.56-2.39-1.8-2.39,11.58,0,22.74,3.8,34.33,3.8,70.53,0,135.56-50.38,157.86-116.61,1.73-5.15,3.68-5.54,3.02-.74m-96.58-198.35c35.85,14.97,77.37,41.22,95.45,72.82l-.49,.54c-25.16-11.73-40.44-32.87-62.35-51.14-8.8-7.34-23.23-13.15-32.78-19.34-4.91-3.18-5.12-5.09,.17-2.89m41.74,23.47l-1.51,1.56c-15.95-11.84-33.79-20.7-51.29-29.94,12.81,3.5,25.97,7.79,39.16,9.61,44.05,6.08-31.11-28.98-36.63-30.81-88.3-29.32-235.83,35.26-257.53,130.58-18.45,81.05,42.1,189.91,119.75,219.04,203.51,76.35,361.93-161.68,188.04-300.05m-87.84-70.71c48.45,4.26,83.1,31.94,117.03,64.1,7.06,6.69,19.01,18.97,23.95,25.15,39,48.84,41.08,99.48,35.78,145.56-10.94,95.29-91.65,170.89-210.48,169.4-27.1-.34-35.47,1.94-60.88-10.18-28.72-13.69-59.18-25.76-82.67-47.91-107.2-101.08-89.53-252.06,45.22-314.81,58.22-27.11,64.84-37.22,132.04-31.31m246.3,273.67C487.63,741.34-17.96,610.7,20.37,302.48c13.8-110.93,109.32-206.86,216.45-236.11-57.77,17.88-110.77,53.56-145.68,103.49l2.41,1.81c-27.91,27.57-39.53,67.87-46.17,105.51-24.56,139.23,42.47,264.63,174.65,303.71,10.76,3.18,11.5,4.52,.92,2.38-18.22-3.68-35.8-8.59-54.1-15.8,79.32,53.05,160.18,54.03,247.28,21.05,1.58-.6,3.66-3.58,.63-2.76-39.33,10.68-83.59,7.99-123.51,4.95l7.24-5.64c-59.94-2.18-117.68-41.13-165.83-92.1-53.72-56.87-94.02-129.43-81.6-197.65,3.44-18.9,13.73-34.37,20.86-51.9,20.66-50.84,28.79-78.21,74.51-110.57l8.82-8.24,33.44-20.02,15.78-6.78,7.18-3.36c122.85-12.62,151.63-42.93,262,37.15,22.25,16.14,42.4,30.71,59.55,52.71l5.61-3.72c-42.9-59.3-106.13-105.42-178.2-120.76,175.23,26.47,265.31,166.68,238.18,337.93-.42,5.1-1.57-2.37-3.07-.8-1.27,1.33-2.77,8.21-2.77,8.21m-410,106.02l6.87,6.62c27.56,22.18,56.19,37.05,87.81,43.47,17.23,3.5,35.34,4.49,54.66,2.79l-.46-5.46c248.18-4.2,285.53-352.8,49.31-437.01l-22.83-9.38,26.89,3.44c-16.95-5.74-34.84-8.14-52.66-8.67l-.08,3.71c-32.23-3.11-62.29,1.05-89.49,10.77-76.56,27.34-142.92,68.36-159.1,145.35-16.66,79.27,19.12,194.86,99.07,244.36M257.76,101.17l32.45-6.82C83.83,87.41-17.78,358.17,150.97,508.54l4.99-1.05c-4.6-7.57-9.33-14.83-15.13-21.54C10.5,335.37,68.98,132.19,257.76,101.17m54.45,456.53l-.37,6.57c51.7,9.05,116.99,6.41,157.47-31.48l3.49,4.48c147.32-86.45,143.61-290.95,4.99-383.78l-3.99,5.28c53.32,39,87.01,99.01,89.38,167.38,1.65,47.74-12.7,100.45-37.33,141.8-6.9,11.6,3.17-9.42,11.41-33.83,1.84-5.45,7.95-12.13,8.77-17.48,.55-3.65-3.76-3.81-5.92-.25-9.81,16.2-18.19,33.26-29.9,48.19-4.04,6.12-8.96,14.87-9.72,11.64-14.78,14.83-119.41,81.61-188.28,81.48" style="fill:#d3af12;"></path><path d="M434.18,194.65c26.54,16.77,51.63,51.05,61.95,79.66,4.67,12.95,4.98,76.03-2,86.58-3.65,5.52-2.19-11.5-2.2-12.45l-1.72-23.45c-1.88-47.38-20.08-87.11-50.46-121.45-3.75-4.24-7.64-10.2-5.57-8.89m87.26,302.71c44.3-31.2,90.19-81.65,87.85-138.29l6.52,1.05C664.35,147.2,436.96,1.95,247.47,46.44c-2.47,0-5.09,.31-7.75,1.04-15.33,4.15-51.84,10.74-121.72,68.4-5.57,4.6-9.59,10.5-18.27,22.01-12.43,16.49-7.55,14.05,5.67,.97,19.26-19.06,42.3-41.38,45.98-44.34,6.21-4.99,20.2-14.98,28.6-19.34,12.45-6.46,42.9-15.49,64.92-19.67l24.11-1.25c30.69-1.73,60.6-4.89,91.09,1.11,119.16,23.46,233.96,126.82,247.14,251.52-3.44-17.13-29.02-110.18-47.97-107.92l-.84,2.82c50.57,88.86,26.66,213.77-42.14,287.08-2.69,2.86,2.42,10.41,5.13,8.5M288.75,60.47c-30.96,1.29-62.79,12.51-94.57,25.96l1.36-.77-1.67,.9c-3.4,2.02-12.63,7.78-23.46,17.44l-22.37,9.34c-79.08,61.6-96.53,171.87-59.29,261.93,15.65,37.86-11.88,38.5,53.48,111.98,19.44,21.86,68.84,48.15,120.03,57.09,33.09,5.78,67.89,1.74,90.86-2.08,4.67-.78,14.32,9.1,17.34,8.87,53.16-4.07,94.15-20.63,130.73-63.31l16.15-18.5c4.53-4.52,8.15-12.76,12.14-17.44,2.23-2.61,3.99,1.77,6.05-.87,124.15-159.26-42.22-399.09-246.79-390.54M74.05,494.6c-3.38-5.09-60.86-105.71-11.84-14.7,49.03,91.01,77.77,94.96,116.65,111.92,38.89,16.96,100.87,15.83,40.57,5.65-60.29-10.17-142-97.79-145.39-102.88m65.26,28.75c-13.68-9.79-36.44-30.76-49.19-43.9-7.96-8.21-13.17-15.89-16.55-22.63-19.76-27.01-38.55-60.31-45.73-88.84-4.3-17.09,0-21.32-4.51-35.61-6.11-50.73,7.33-80.27,7.33-80.27,3.54-11.2-.87-15.3,0-27.05,0,0,.24-27.53,19.17-56.61C83.48,116.71,222.21,24.63,279.17,19.77c30.01-2.56,43.21,3.4,73.3,4.44,6.17,.22,5.89-3.39-.63-5.48-34.18-10.94-78.05-6.89-110.83,2.86-21.87,6.51-36.36,17.99-55.35,30.42-11.33,7.42-13.65-2.29-32.24,14.81l-2.99-1.64c14.11-23.72,79.43-55.41,106.77-60.69,40.45-8.6,58.6-2.26,58.6-2.26,117.68,15.96,208.28,62.22,279.54,157.74l-4.04,2.67c36.29,65.06,41.46,115.26,41.46,187.27,0,149.3-149.05,289.06-296.98,281.81-10.11-.49-20-1.74-30.15-1.72-66.31,.17-153.19-26.93-201.15-64.19C24.69,503.84,3.16,405.94,.15,301.35c-.77-26.91,1.13-72.17,13.17-96.13l1.13-.3c-10.15,47.96-15.04,90.84-3.96,139.39l3.35-.32c2.43,67.66,66.17,142.51,115.63,184.21,103.1,86.92,240.07,106.81,355.61,30.83-28.79,20.22-50.16,35.05-83.91,46.73,114.43-17.19,187.84-86.27,219.47-196.44l-1.84-1.2c-5.58,8.87-7.73,18.76-11.93,28.23-16.34,36.95-53.48,59.52-80.26,87.99l-2.43,1.68c5.49-13.12-7.72-3.11-10.72-1.38-47.72,27.59-116.17,60.87-169.5,56.89-28.08-2.09-21.21-9.36-41.69-15.15-12-3.39-18.65-10.89-30.43-13.57-25.2-5.72-52.52-10.76-78.42-18.81-4.69-1.45-11.94-8.25-16.3-9.51-2.8-.81-18.01-9.13-9.29,.76l-3.22-.95c46.28,35.21,101.2,59.67,148.85,59.67,10.18,0,31.59,11.06,43.72,9.73l-14.13,3.82c-82.84,1.09-152.3-28.54-203.75-74.19m-68.73-89.26c34,49.09,42.28,61.86,69.96,81.48,7.6,3.36,15.55,6.17,24.07,8.75-36.19-27.53-66.54-62.45-87.75-91.9-16.81-23.34-29.84-74.5-28.08-102.23,4.85-76.6,8.07-109.68,54.28-173.52l8.74-11.97C28.24,218.36,21.41,336.81,70.58,434.09M345,97.24c76.73-.03,139.6,46.84,177.7,105.61,93.72,144.57-22.32,323.24-186.88,320.35-204.94-3.59-289.27-191.73-195.25-319.14,21.21-34.96,55.1-63.62,102.12-79.13,26.83-12.03,57.72-21.52,92.83-27.72l9.48,.03Zm-204.43,106.82c-74.07,122.05,6.28,320.8,220.99,303.96,268.59-21.07,228.06-413.05-58.97-394.64l.15,2.4-21.04,3.56,.36,1.59-1.34-5.1c-13.52,2.13-26.19,5.2-38.03,9.1-45.32,20.32-79.07,47.91-102.12,79.13" style="fill:#fbd547; fill-rule:evenodd;"></path></g></svg>